<svg width="267" height="53" fill="none" xmlns="http://www.w3.org/2000/svg"><path fill-rule="evenodd" clip-rule="evenodd" d="M9.993 5L0 53h256.007L266 5H9.993z" fill="#CD631A"/><path fill-rule="evenodd" clip-rule="evenodd" d="M10.993 0L1 48h256.007L267 0H10.993z" fill="#FE7B20"/><path d="M124.721 30h2.034V17.4h-1.764v7.542h-.036l-1.998-7.542h-2.484V30h1.782v-9.126h.036l2.43 9.126zm5.431-10.8h3.42v-1.8h-5.4V30h5.4v-1.8h-3.42v-3.69h2.718v-1.8h-2.718V19.2zm9.417-1.8l-1.512 4.644h-.036l-1.476-4.644h-2.052l2.07 6.12-2.214 6.48h1.854l1.62-4.986h.036L139.461 30h2.088l-2.214-6.48 2.07-6.12h-1.836zm2.388 1.8h2.07V30h1.98V19.2h2.07v-1.8h-6.12v1.8z" fill="#fff"/></svg>