<svg width="112" height="53" fill="none" xmlns="http://www.w3.org/2000/svg"><path fill-rule="evenodd" clip-rule="evenodd" d="M11 0L1 48h101l10-48H11z" fill="#5F5F5F"/><path d="M45.197 17.4H42.21V30h3.114c1.98 0 3.006-1.044 3.006-2.988v-1.026c0-1.332-.414-2.268-1.476-2.682v-.036c.882-.414 1.278-1.224 1.278-2.52v-.45c0-1.944-.882-2.898-2.934-2.898zm-.126 6.93c.9 0 1.278.36 1.278 1.53v1.098c0 .936-.36 1.242-1.026 1.242H44.19v-3.87h.882zm.072-5.13c.702 0 1.008.396 1.008 1.296v.702c0 1.008-.45 1.332-1.188 1.332h-.774V19.2h.954zm8.77-1.8h-2.897L49 30h1.818l.342-2.286h2.43L53.932 30h1.998l-2.016-12.6zm-1.565 2.232h.036l.936 6.372h-1.908l.936-6.372zm8.356 5.67v1.8c0 .9-.396 1.224-1.026 1.224s-1.026-.324-1.026-1.224v-6.804c0-.9.396-1.242 1.026-1.242s1.026.342 1.026 1.242v1.35h1.872v-1.224c0-2.016-1.008-3.168-2.952-3.168s-2.952 1.152-2.952 3.168v6.552c0 2.016 1.008 3.168 2.952 3.168s2.952-1.152 2.952-3.168v-1.674h-1.872zM68.296 30h2.034l-2.754-6.984L70.33 17.4h-1.98l-2.556 5.454h-.036V17.4h-1.98V30h1.98v-3.87l.612-1.152L68.296 30z" fill="#fff"/><path fill-rule="evenodd" clip-rule="evenodd" d="M1.041 48h101.007l-1.041 5H0l1.041-5z" fill="#363636"/></svg>