<svg width="211" height="279" fill="none" xmlns="http://www.w3.org/2000/svg"><path fill-rule="evenodd" clip-rule="evenodd" d="M83.44 7.917l5.892 7.851 5.934-6.633 6.125 6.633 5.701-7.593h-5.701L95.265 0l-5.933 7.917H83.44zM187.247 128.806l5.892 7.851 5.934-6.633 6.125 6.633 5.701-7.593h-5.701l-6.125-8.175-5.934 7.917h-5.892zM139.942 270.719l5.892 7.851 5.934-6.633 6.125 6.633 5.701-7.593h-5.701l-6.125-8.175-5.934 7.917h-5.892zM0 262.835l5.892 7.851 5.934-6.633 6.125 6.633 5.701-7.593h-5.7l-6.126-8.175-5.934 7.917H0zM103.15 170.197l5.892 7.851 5.934-6.633 6.125 6.633 5.701-7.593h-5.701l-6.125-8.175-5.934 7.917h-5.892z" fill="#FE7B20"/></svg>